<svg xmlns="http://www.w3.org/2000/svg" width="38" height="30.421" viewBox="0 0 38 30.421">
  <g id="Email" transform="translate(1 -6)">
    <g id="Group_1145" data-name="Group 1145" transform="translate(0 7)">
      <path id="Path_2572" data-name="Path 2572" d="M37.711,45.921H9.289A3.788,3.788,0,0,1,5.5,42.132V21.289A3.788,3.788,0,0,1,9.289,17.5H37.711A3.788,3.788,0,0,1,41.5,21.289V42.132A3.788,3.788,0,0,1,37.711,45.921Z" transform="translate(-5.5 -17.5)" fill="none" stroke="#000" stroke-linecap="round" stroke-linejoin="round" stroke-miterlimit="10" stroke-width="2"/>
      <path id="Path_2573" data-name="Path 2573" d="M42.556,21.56l-14.379,14.6a3.743,3.743,0,0,1-5.355,0L8.44,21.56" transform="translate(-7.498 -20.259)" fill="none" stroke="#000" stroke-linecap="round" stroke-linejoin="round" stroke-miterlimit="10" stroke-width="2"/>
      <line id="Line_5" data-name="Line 5" x2="11.338" y2="12.734" transform="translate(23.592 14.194)" fill="none" stroke="#000" stroke-linecap="round" stroke-linejoin="round" stroke-miterlimit="10" stroke-width="2"/>
      <line id="Line_6" data-name="Line 6" y1="12.734" x2="11.153" transform="translate(1.07 14.194)" fill="none" stroke="#000" stroke-linecap="round" stroke-linejoin="round" stroke-miterlimit="10" stroke-width="2"/>
    </g>
  </g>
</svg>
