<svg xmlns="http://www.w3.org/2000/svg" width="41.981" height="42" viewBox="0 0 41.981 42">
  <g id="LinkedIn" transform="translate(1 1)">
    <g id="Group_1146" data-name="Group 1146" transform="translate(0 0)">
      <path id="Path_2574" data-name="Path 2574" d="M57.512,48.643v2.792c.744-.665,1.33-1.278,2-1.774,5.532-4.059,13.262.008,13.822,6.453.474,5.43.1,10.936.1,16.49h-7.99v-1.27c0-4.209.026-8.418-.015-12.627a3.956,3.956,0,1,0-7.9-.188c-.03,4.25-.011,8.5-.011,12.747v1.349H49.53V48.643Z" transform="translate(-33.573 -32.638)" fill="rgba(0,0,0,0)" stroke="#000" stroke-linecap="round" stroke-linejoin="round" stroke-miterlimit="10" stroke-width="2"/>
      <path id="Path_2575" data-name="Path 2575" d="M21.894,73.645H14.04v-24h7.854Z" transform="translate(-13.085 -33.645)" fill="rgba(0,0,0,0)" stroke="#000" stroke-linecap="round" stroke-linejoin="round" stroke-miterlimit="10" stroke-width="2"/>
      <path id="Path_2576" data-name="Path 2576" d="M16.34,21.224a4.945,4.945,0,0,1-4.84-4.859,4.973,4.973,0,0,1,4.867-4.855,4.857,4.857,0,0,1-.026,9.715Z" transform="translate(-11.5 -11.51)" fill="rgba(0,0,0,0)" stroke="#000" stroke-linecap="round" stroke-linejoin="round" stroke-miterlimit="10" stroke-width="2"/>
    </g>
  </g>
</svg>
